<svg xmlns="http://www.w3.org/2000/svg" xmlns:xlink="http://www.w3.org/1999/xlink" width="750px" height="175px" viewBox="89.56758880615234 178.68739318847656 976.4559326171875 227.953125" preserveAspectRatio="xMidYMid meet" ><rect id="svgEditorBackground" x="0" y="0" width="1130" height="730" style="fill:none; stroke: none;"/><defs id="svgEditorDefs"><path id="svgEditorClosePathDefs" style="stroke:black;stroke-width:1px;fill:rosybrown;"/><polygon id="svgEditorIconDefs" style="fill:rosybrown;"/><polygon id="svgEditorShapeDefs" style="fill:rosybrown;stroke:black;vector-effect:non-scaling-stroke;stroke-width:1px;"/><linearGradient gradientUnits="objectBoundingBox" id="lgrd2-peachpuff-sienna-h" spreadMethod="pad" x1="0%" x2="100%" y1="0%" y2="0%"><stop offset="0%" style="stop-color:peachpuff;  stop-opacity:1;"/><stop offset="100%" style="stop-color:sienna;  stop-opacity:1"/></linearGradient></defs><g style="fill:rosybrown; stroke:black; vector-effect:non-scaling-stroke;stroke-width:1px;" id="e4_shape" transform="matrix(0.960562 0 0 0.960562 182.024 267.024)"/><g id="e7_group"><path d="M16,104c0,4.4,3.6,8,8,8h80c4.4,0,8,-3.6,8,-8v-80c0,-4.4,-3.6,-8,-8,-8h-80c-4.4,0,-8,3.6,-8,8v80Z" style="fill:dodgerblue; stroke:dodgerblue; vector-effect:non-scaling-stroke;stroke-width:1px;" id="e5_shape" transform="matrix(1.90201 0 0 1.90201 74.0212 171.021)"/><path d="M11.339309258471118,-113.62104580593636c3.1000000000000014,3.1000000000000085,8.200000000000003,3.1000000000000085,11.299999999999997,0l56,-56.000000000000014c1.4000000000000057,-1.3999999999999773,2.299999999999997,-3.3999999999999773,2.299999999999997,-5.699999999999989s-0.8999999999999915,-4.199999999999989,-2.299999999999997,-5.699999999999989l-56,-56c-3.0999999999999943,-3.1000000000000227,-8.200000000000003,-3.1000000000000227,-11.299999999999997,0s-3.1000000000000014,8.199999999999989,0,11.299999999999983l50.3,50.30000000000001l-50.3,50.29999999999998c-3.1000000000000014,3.0999999999999943,-3.1000000000000014,8.200000000000003,0,11.299999999999997Z" style="fill:white; stroke:white; vector-effect:non-scaling-stroke;stroke-width:1px;" id="e6_shape" transform="matrix(1.13237 0 0 1.13237 147.792 492.028)"/><path d="M16,104c0,4.4,3.6,8,8,8h80c4.4,0,8,-3.6,8,-8v-80c0,-4.4,-3.6,-8,-8,-8h-80c-4.4,0,-8,3.6,-8,8v80Z" style="fill:dodgerblue; stroke:dodgerblue; vector-effect:non-scaling-stroke;stroke-width:1px;" id="e1_shape" transform="matrix(1.90201 0 0 1.90201 74.0212 171.021)"/><path d="M11.339309258471118,-113.62104580593636c3.1000000000000014,3.1000000000000085,8.200000000000003,3.1000000000000085,11.299999999999997,0l56,-56.000000000000014c1.4000000000000057,-1.3999999999999773,2.299999999999997,-3.3999999999999773,2.299999999999997,-5.699999999999989s-0.8999999999999915,-4.199999999999989,-2.299999999999997,-5.699999999999989l-56,-56c-3.0999999999999943,-3.1000000000000227,-8.200000000000003,-3.1000000000000227,-11.299999999999997,0s-3.1000000000000014,8.199999999999989,0,11.299999999999983l50.3,50.30000000000001l-50.3,50.29999999999998c-3.1000000000000014,3.0999999999999943,-3.1000000000000014,8.200000000000003,0,11.299999999999997Z" style="fill:white; stroke:white; vector-effect:non-scaling-stroke;stroke-width:1px;" id="e2_shape" transform="matrix(1.13237 0 0 1.13237 147.792 492.028)"/><path d="M16,104c0,4.4,3.6,8,8,8h80c4.4,0-11.229-23.724,8-8v-80c0-4.4-3.6-8-8-8h-80c-4.4,0-8,3.6-8,8v80Z" style="fill:dodgerblue; stroke:dodgerblue; vector-effect:non-scaling-stroke;stroke-width:1px;" id="e3_shape" transform="matrix(1.90201 0 0 1.90201 74.0212 171.021)"/><path d="M11.339309258471118,-113.62104580593636c3.1000000000000014,3.1000000000000085,8.200000000000003,3.1000000000000085,11.299999999999997,0l56,-56.000000000000014c1.4000000000000057,-1.3999999999999773,2.299999999999997,-3.3999999999999773,2.299999999999997,-5.699999999999989s-0.8999999999999915,-4.199999999999989,-2.299999999999997,-5.699999999999989l-56,-56c-3.0999999999999943,-3.1000000000000227,-8.200000000000003,-3.1000000000000227,-11.299999999999997,0s-3.1000000000000014,8.199999999999989,0,11.299999999999983l50.3,50.30000000000001l-50.3,50.29999999999998c-3.1000000000000014,3.0999999999999943,-3.1000000000000014,8.200000000000003,0,11.299999999999997Z" style="fill:white; stroke:white; vector-effect:non-scaling-stroke;stroke-width:1px;" id="e7_shape" transform="matrix(1.13237 0 0 1.13237 147.792 492.028)"/></g><text style="fill:dodgerblue; font-size:38.4px; font-weight:normal; text-anchor: start;font-family:Lucida Sans;" x="264.5677795410156" y="283.6612548828125" id="e8_texte" transform="matrix(3.96377 0 0 3.96377 -736.605 -784.998)">servdown</text></svg>